<svg display="block" role="presentation" viewBox="0 0 168 48" xmlns="http://www.w3.org/2000/svg"><g d="M 153.263 0.064 C 157.476 -0.022 161.757 0.079 165.998 0 C 165.918 2.595 165.894 5.347 165.942 7.942 C 166.186 20.888 165.553 34.062 165.962 46.981 C 148.763 46.782 131.111 46.979 113.876 46.98 L 12.336 46.974 L 0.057 47 L 0.079 17.838 C 0.082 12.295 0.268 5.474 0 0.06 C 6.866 0.16 13.905 0.088 20.784 0.088 L 58.446 0.081 Z M 1.809 1.732 C 4.974 1.622 8.398 1.68 11.583 1.68 L 27.78 1.686 L 76.706 1.694 L 133.842 1.689 C 143.811 1.686 154.653 1.477 164.571 1.727 L 164.574 30.996 L 164.588 40.29 C 164.589 41.82 164.65 44.153 164.521 45.604 L 1.716 45.586 C 1.635 41.834 1.469 2.62 1.809 1.732 Z M 35.024 12.587 C 37.225 12.63 39.364 12.644 41.565 12.63 C 41.979 14.207 42.848 16.4 43.421 17.981 L 46.804 27.256 C 47.47 29.067 48.87 33.473 49.608 34.944 C 49.614 33.628 49.512 32.227 49.508 30.877 L 49.538 12.616 C 52.958 12.65 60.546 12.084 63.218 13.443 C 68.924 16.345 68.247 24.044 61.938 26.18 C 62.944 27.598 63.871 29.311 64.746 30.835 C 65.571 32.282 66.385 33.685 67.246 35.11 L 60.986 35.114 C 59.796 32.999 57.716 28.753 56.138 26.815 C 55.933 26.564 55.554 26.665 55.246 26.703 C 54.857 27.249 54.981 34.076 54.984 35.117 C 51.256 35.114 47.507 35.092 43.781 35.146 C 43.321 33.78 42.883 32.51 42.516 31.113 L 34.036 31.124 C 33.659 32.392 33.133 33.848 32.705 35.115 L 26.891 35.131 L 31.795 21.607 C 32.84 18.719 34.108 15.47 35.024 12.587 Z M 55.035 17.133 C 57.026 17.084 60.907 16.449 61.304 19.09 C 61.497 20.376 61.329 20.999 60.604 22.036 C 59.386 22.884 56.569 22.643 55.018 22.634 C 54.994 20.814 55.023 18.956 55.035 17.133 Z M 38.144 18.872 C 38.649 19.327 40.581 25.557 41.078 26.78 L 38.407 26.785 L 35.526 26.77 C 36.426 24.166 37.323 21.502 38.144 18.872 Z M 133.694 12.58 C 135.524 12.626 137.423 12.586 139.259 12.57 C 142.304 17.193 145.448 21.858 148.394 26.538 L 148.384 12.584 C 150.207 12.629 152.072 12.623 153.899 12.636 C 153.841 17.844 153.966 23.085 153.908 28.295 C 153.883 30.482 153.991 32.959 153.883 35.111 L 148.407 35.123 L 139.199 21.205 C 139.386 22.964 139.322 25.092 139.314 26.88 L 139.293 35.125 L 133.621 35.133 C 133.764 27.717 133.585 20.061 133.694 12.58 Z M 120.865 12.363 C 126.649 11.807 131.068 14.022 132.869 19.68 C 130.892 19.773 128.862 19.663 126.832 19.769 C 124.635 16.252 119.205 16.675 117.369 20.103 C 115.827 22.877 116.271 28.353 119.588 29.702 C 123.501 31.293 126.508 30.21 128.345 26.502 C 126.077 26.573 123.527 26.492 121.24 26.473 C 121.272 25.115 121.265 23.714 121.273 22.353 L 122.819 22.393 C 126.252 22.467 129.785 22.356 133.242 22.407 C 133.306 25.55 133.706 27.778 131.789 30.537 C 128.144 35.783 120.596 36.757 115.417 33.211 C 110.211 29.647 109.412 21.688 113.03 16.707 C 114.991 14.006 117.659 12.868 120.865 12.363 Z M 10.936 12.613 C 14.901 12.728 20.108 12.098 23.817 13.217 C 28.316 14.574 29.393 21.236 26.384 24.531 C 24.368 26.739 22.406 26.806 19.643 26.997 C 18.616 27.039 17.487 27.028 16.451 27.04 L 16.407 35.111 L 10.879 35.098 C 10.984 28.848 10.795 22.564 10.876 16.311 C 10.892 15.07 10.866 13.855 10.936 12.613 Z M 16.632 17.048 C 17.633 17.012 18.669 16.942 19.668 16.982 C 22.586 17.099 23.345 19.711 21.729 21.906 C 20.346 22.861 18.213 22.59 16.502 22.566 C 16.493 21.777 16.376 17.522 16.632 17.048 Z M 80.798 12.527 C 82.916 12.611 85.179 12.6 87.309 12.627 C 86.332 13.677 85.414 14.949 84.504 16.073 C 82.5 18.547 80.559 21.164 78.504 23.59 C 79.986 25.147 82.312 28.289 83.712 30.074 C 85.028 31.776 86.311 33.426 87.684 35.086 C 85.424 35.052 83.138 35.076 80.876 35.082 C 78.343 31.848 75.825 28.447 73.321 25.174 L 73.313 35.08 L 67.813 35.08 C 67.963 29.98 67.702 24.552 67.809 19.43 C 67.854 17.234 67.711 14.728 67.891 12.568 L 73.324 12.577 C 73.17 15.541 73.313 19.323 73.302 22.402 C 75.757 19.35 78.4 15.679 80.798 12.527 Z M 94.287 12.228 C 96.359 11.943 99.546 12.522 101.212 13.849 C 103.08 15.337 103.581 16.727 103.91 18.937 L 97.801 18.954 C 97.686 18.168 97.74 18.039 97.186 17.404 C 95.782 15.8 92.444 16.707 93.059 19.083 C 93.168 19.505 93.693 20.142 94.089 20.376 C 97.526 22.416 103.655 22.496 104.049 27.608 C 104.506 32.609 100.776 35.069 96.178 35.403 C 91.509 35.314 87.502 33.606 87.087 28.365 C 88.992 28.432 91.052 28.407 92.954 28.326 C 93.445 31.023 96.115 31.88 98.077 29.859 C 98.925 28.985 98.009 27.362 97.022 26.85 C 93.537 25.044 87.901 24.996 87.218 20.071 C 86.501 15.117 89.812 12.807 94.287 12.228 Z M 104.936 12.556 C 106.799 12.578 108.61 12.576 110.472 12.551 C 110.428 13.72 110.392 14.935 110.424 16.104 C 110.599 22.411 110.301 28.806 110.457 35.102 C 109.023 35.235 106.609 35.071 104.9 35.183 L 104.902 21.051 C 104.897 18.337 104.817 15.227 104.936 12.556 Z M 157.936 12.248 C 159.531 11.955 161.06 13.016 161.345 14.614 C 161.63 16.212 160.561 17.736 158.962 18.013 C 157.376 18.287 155.866 17.227 155.584 15.641 C 155.301 14.056 156.352 12.54 157.936 12.248 Z M 157.892 12.91 C 159.117 12.592 160.367 13.32 160.698 14.542 C 161.027 15.764 160.312 17.023 159.094 17.365 C 157.86 17.711 156.579 16.983 156.245 15.744 C 155.911 14.506 156.651 13.232 157.892 12.91 Z M 157.444 13.627 C 157.957 13.595 158.971 13.493 159.414 13.716 C 159.9 13.961 159.22 15.317 159.437 15.772 C 159.518 15.94 159.551 16.177 159.585 16.362 C 159.289 16.658 159.472 16.54 158.932 16.585 C 158.763 16.202 158.579 15.74 158.197 15.58 C 158.057 16.07 158.025 16.196 157.797 16.644 L 157.596 16.696 C 156.986 16.133 157.238 14.355 157.444 13.627 Z" fill="transparent" height="47px" id="mx01Lbl7t" transform="translate(1 0.77)" width="166px"><path d="M 153.263 0.064 C 157.476 -0.022 161.757 0.079 165.998 0 C 165.918 2.595 165.894 5.347 165.942 7.942 C 166.186 20.888 165.553 34.062 165.962 46.981 C 148.763 46.782 131.111 46.979 113.876 46.98 L 12.336 46.974 L 0.057 47 L 0.079 17.838 C 0.082 12.295 0.268 5.474 0 0.06 C 6.866 0.16 13.905 0.088 20.784 0.088 L 58.446 0.081 Z" fill="rgb(0, 0, 0)" height="47px" id="TFMxnBSc9" width="166px"/><path d="M 0.205 0.127 C 3.37 0.018 6.794 0.075 9.979 0.076 L 26.177 0.082 L 75.103 0.089 L 132.239 0.085 C 142.208 0.082 153.049 -0.127 162.967 0.123 L 162.971 29.392 L 162.985 38.686 C 162.986 40.216 163.047 42.548 162.917 44 L 0.112 43.981 C 0.032 40.23 -0.134 1.016 0.205 0.127 Z" fill="rgb(255, 255, 255)" height="44px" id="yah3XrxTW" transform="translate(1.604 1.604)" width="163px"/><path d="M 8.134 0.06 C 10.334 0.103 12.473 0.117 14.674 0.103 C 15.088 1.68 15.957 3.873 16.53 5.454 L 19.913 14.729 C 20.579 16.54 21.979 20.946 22.717 22.417 C 22.723 21.101 22.621 19.7 22.617 18.35 L 22.647 0.089 C 26.067 0.122 33.656 -0.444 36.327 0.916 C 42.033 3.818 41.356 11.517 35.047 13.653 C 36.053 15.071 36.98 16.784 37.855 18.308 C 38.68 19.755 39.494 21.158 40.355 22.583 L 34.095 22.587 C 32.905 20.472 30.825 16.226 29.247 14.288 C 29.042 14.037 28.664 14.138 28.356 14.176 C 27.967 14.722 28.09 21.549 28.093 22.59 C 24.365 22.587 20.616 22.565 16.891 22.619 C 16.431 21.253 15.992 19.983 15.626 18.586 L 7.145 18.597 C 6.768 19.864 6.242 21.321 5.814 22.588 L 0 22.604 L 4.904 9.08 C 5.949 6.192 7.217 2.943 8.134 0.06 Z" fill="rgb(0, 0, 0)" height="22.619182283633215px" id="AtPSh9HKS" transform="translate(26.891 12.527)" width="40.35546265165044px"/><path d="M 19.509 0.101 C 21.501 0.052 25.381 -0.582 25.778 2.059 C 25.971 3.344 25.803 3.967 25.078 5.004 C 23.861 5.852 21.044 5.611 19.492 5.603 C 19.468 3.782 19.498 1.925 19.509 0.101 Z M 2.619 1.841 C 3.123 2.295 5.055 8.525 5.553 9.748 L 2.881 9.753 L 0 9.738 C 0.9 7.134 1.797 4.47 2.619 1.841 Z" fill="rgb(255, 255, 255)" height="9.753011772138834px" id="uGO5QmHbC" transform="translate(35.526 17.032)" width="25.85199124741226px"/><path d="M 122.839 0.3 C 124.669 0.345 126.568 0.305 128.404 0.29 C 131.449 4.913 134.593 9.578 137.539 14.258 L 137.529 0.304 C 139.352 0.349 141.217 0.343 143.044 0.356 C 142.986 5.564 143.11 10.805 143.053 16.015 C 143.028 18.202 143.136 20.679 143.028 22.83 L 137.552 22.843 L 128.344 8.925 C 128.531 10.684 128.467 12.812 128.459 14.6 L 128.438 22.845 L 122.766 22.853 C 122.909 15.436 122.73 7.781 122.839 0.3 Z M 110.01 0.083 C 115.794 -0.473 120.213 1.741 122.013 7.399 C 120.037 7.493 118.007 7.383 115.977 7.489 C 113.78 3.972 108.35 4.395 106.514 7.823 C 104.972 10.596 105.416 16.073 108.733 17.422 C 112.646 19.013 115.653 17.929 117.49 14.222 C 115.222 14.292 112.672 14.212 110.385 14.192 C 110.417 12.835 110.41 11.434 110.418 10.073 L 111.964 10.113 C 115.397 10.187 118.93 10.076 122.387 10.126 C 122.451 13.27 122.851 15.498 120.934 18.257 C 117.289 23.503 109.741 24.477 104.562 20.931 C 99.356 17.367 98.557 9.407 102.175 4.427 C 104.136 1.726 106.804 0.588 110.01 0.083 Z M 0.081 0.333 C 4.046 0.447 9.253 -0.182 12.962 0.937 C 17.461 2.294 18.538 8.956 15.529 12.251 C 13.513 14.459 11.551 14.526 8.788 14.717 C 7.761 14.759 6.632 14.748 5.596 14.76 L 5.552 22.83 L 0.024 22.818 C 0.129 16.568 -0.06 10.284 0.021 4.031 C 0.037 2.79 0.011 1.574 0.081 0.333 Z" fill="rgb(0, 0, 0)" height="23.032594385030226px" id="J67fYuoOt" transform="translate(10.855 12.28)" width="143.07705755683102px"/><path d="M 0.165 0.078 C 1.166 0.042 2.201 -0.028 3.2 0.012 C 6.119 0.129 6.877 2.741 5.261 4.936 C 3.878 5.891 1.746 5.62 0.034 5.596 C 0.025 4.807 -0.091 0.552 0.165 0.078 Z" fill="rgb(255, 255, 255)" height="5.6494851725320085px" id="FaZ9qWRmb" transform="translate(16.468 16.97)" width="6.0947986884214975px"/><path d="M 13.016 0 C 15.134 0.084 17.396 0.073 19.527 0.1 C 18.55 1.15 17.632 2.422 16.722 3.546 C 14.717 6.02 12.776 8.637 10.721 11.063 C 12.203 12.62 14.529 15.762 15.93 17.547 C 17.246 19.249 18.529 20.899 19.902 22.559 C 17.642 22.524 15.356 22.549 13.094 22.555 C 10.561 19.321 8.042 15.92 5.538 12.647 L 5.53 22.553 L 0.031 22.553 C 0.18 17.453 -0.08 12.025 0.026 6.903 C 0.072 4.707 -0.072 2.201 0.109 0.041 L 5.542 0.05 C 5.387 3.014 5.531 6.796 5.52 9.875 C 7.974 6.823 10.618 3.152 13.016 0 Z" fill="rgb(0, 0, 0)" height="22.55905214066633px" id="BI952T9zI" transform="translate(67.782 12.527)" width="19.901691117597995px"/><path d="M 7.2 0.071 C 9.272 -0.214 12.459 0.366 14.125 1.692 C 15.993 3.18 16.493 4.571 16.823 6.78 L 10.714 6.797 C 10.598 6.011 10.653 5.882 10.099 5.247 C 8.695 3.643 5.357 4.55 5.972 6.926 C 6.081 7.349 6.606 7.985 7.002 8.219 C 10.439 10.259 16.568 10.339 16.962 15.451 C 17.419 20.452 13.688 22.912 9.091 23.246 C 4.422 23.158 0.414 21.449 0 16.208 C 1.905 16.276 3.965 16.25 5.867 16.17 C 6.358 18.866 9.028 19.723 10.989 17.702 C 11.838 16.829 10.922 15.206 9.935 14.693 C 6.45 12.887 0.814 12.839 0.131 7.914 C -0.586 2.96 2.725 0.65 7.2 0.071 Z M 17.849 0.399 C 19.712 0.421 21.523 0.42 23.385 0.395 C 23.341 1.564 23.305 2.779 23.337 3.947 C 23.512 10.255 23.214 16.65 23.37 22.945 C 21.936 23.079 19.522 22.914 17.813 23.027 L 17.815 8.894 C 17.81 6.18 17.729 3.07 17.849 0.399 Z M 70.849 0.092 C 72.444 -0.202 73.973 0.859 74.258 2.457 C 74.543 4.055 73.474 5.58 71.875 5.856 C 70.289 6.13 68.779 5.07 68.497 3.485 C 68.214 1.899 69.265 0.383 70.849 0.092 Z" fill="rgb(0, 0, 0)" height="23.24636389474002px" id="hfqaKUyhl" transform="translate(87.087 12.157)" width="74.30430967377573px"/><path d="M 1.727 0.074 C 2.952 -0.243 4.203 0.485 4.533 1.706 C 4.863 2.928 4.147 4.187 2.93 4.529 C 1.695 4.875 0.415 4.148 0.08 2.909 C -0.254 1.67 0.486 0.397 1.727 0.074 Z" fill="rgb(255, 255, 255)" height="4.615362354646239px" id="OPvCft8xz" transform="translate(156.165 12.836)" width="4.613480222923972px"/><path d="M 0.231 0.051 C 0.744 0.019 1.758 -0.083 2.201 0.14 C 2.687 0.385 2.007 1.741 2.224 2.196 C 2.305 2.364 2.338 2.601 2.372 2.786 C 2.076 3.082 2.259 2.964 1.719 3.009 C 1.55 2.625 1.366 2.163 0.983 2.004 C 0.844 2.494 0.812 2.62 0.584 3.068 L 0.383 3.12 C -0.227 2.557 0.025 0.779 0.231 0.051 Z" fill="rgb(0, 0, 0)" height="3.1200873295029403px" id="FbA6wROiK" transform="translate(157.213 13.576)" width="2.3803520497502895px"/></g></svg>